<?xml version="1.0" encoding="utf-8"?>
<svg version="1.1" xmlns:xlink="http://www.w3.org/1999/xlink" width="18px" height="32px" xmlns="http://www.w3.org/2000/svg">
  <defs>
    <pattern id="BGPattern" patternUnits="userSpaceOnUse" alignment="0 0" imageRepeat="None" />
    <mask fill="white" id="Clip2848">
      <path d="M 17.8875 1.3549019607843165  C 17.8875 0.8134463236953002  17.57270021472478 0.3745098039215713  17.184375 0.3745098039215713  L 15 0.3745098039215713  L 15 31.686274509803923  L 17.8875 31.686274509803923  L 17.8875 1.3549019607843165  Z M 5.23125 0.37450980392156685  L 5.23125 8.217647058823527  C 5.23125 8.759102695912544  5.546049785275224 9.198039215686272  5.934375 9.198039215686272  C 6.322700214724775 9.198039215686272  6.6375 8.759102695912544  6.6375 8.217647058823527  L 6.6375 0.37450980392156685  L 5.23125 0.37450980392156685  Z M 6.6375 12.139215686274508  C 6.6375 11.597760049185492  6.322700214724775 11.158823529411762  5.934375 11.158823529411762  C 5.546049785275224 11.158823529411762  5.23125 11.597760049185492  5.23125 12.139215686274508  L 5.23125 15.080392156862743  C 5.23125 15.62184779395176  5.546049785275224 16.060784313725488  5.934375 16.060784313725488  C 6.322700214724775 16.060784313725488  6.6375 15.62184779395176  6.6375 15.080392156862743  L 6.6375 12.139215686274508  Z M 1.0125 0.37450980392156685  C 0.6241747852752227 0.37450980392156685  0.309375 0.8134463236953002  0.309375 1.3549019607843165  L 0.309375 12.139215686274508  C 0.309375 12.680671323363525  0.6241747852752227 13.119607843137253  1.0125 13.119607843137253  C 1.4008252147247757 13.119607843137253  1.715625 12.680671323363525  1.715625 12.139215686274508  C 1.715625 12.139215686274508  1.715625 12.139215686274508  2 12.139215686274508  L 2 0.37450980392156685  L 1.0125 0.37450980392156685  Z " fill-rule="evenodd" />
    </mask>
  </defs>
  <g transform="matrix(1 0 0 1 -178 -752 )">
    <path d="M 17.8875 1.3549019607843165  C 17.8875 0.8134463236953002  17.57270021472478 0.3745098039215713  17.184375 0.3745098039215713  L 15 0.3745098039215713  L 15 31.686274509803923  L 17.8875 31.686274509803923  L 17.8875 1.3549019607843165  Z M 5.23125 0.37450980392156685  L 5.23125 8.217647058823527  C 5.23125 8.759102695912544  5.546049785275224 9.198039215686272  5.934375 9.198039215686272  C 6.322700214724775 9.198039215686272  6.6375 8.759102695912544  6.6375 8.217647058823527  L 6.6375 0.37450980392156685  L 5.23125 0.37450980392156685  Z M 6.6375 12.139215686274508  C 6.6375 11.597760049185492  6.322700214724775 11.158823529411762  5.934375 11.158823529411762  C 5.546049785275224 11.158823529411762  5.23125 11.597760049185492  5.23125 12.139215686274508  L 5.23125 15.080392156862743  C 5.23125 15.62184779395176  5.546049785275224 16.060784313725488  5.934375 16.060784313725488  C 6.322700214724775 16.060784313725488  6.6375 15.62184779395176  6.6375 15.080392156862743  L 6.6375 12.139215686274508  Z M 1.0125 0.37450980392156685  C 0.6241747852752227 0.37450980392156685  0.309375 0.8134463236953002  0.309375 1.3549019607843165  L 0.309375 12.139215686274508  C 0.309375 12.680671323363525  0.6241747852752227 13.119607843137253  1.0125 13.119607843137253  C 1.4008252147247757 13.119607843137253  1.715625 12.680671323363525  1.715625 12.139215686274508  C 1.715625 12.139215686274508  1.715625 12.139215686274508  2 12.139215686274508  L 2 0.37450980392156685  L 1.0125 0.37450980392156685  Z " fill-rule="nonzero" fill="rgba(0, 0, 0, 1)" stroke="none" transform="matrix(1 0 0 1 178 752 )" class="fill" />
    <path d="M 17.8875 1.3549019607843165  C 17.8875 0.8134463236953002  17.57270021472478 0.3745098039215713  17.184375 0.3745098039215713  L 15 0.3745098039215713  L 15 31.686274509803923  L 17.8875 31.686274509803923  L 17.8875 1.3549019607843165  Z " stroke-width="0" stroke-dasharray="0" stroke="rgba(255, 255, 255, 0)" fill="none" transform="matrix(1 0 0 1 178 752 )" class="stroke" mask="url(#Clip2848)" />
    <path d="M 5.23125 0.37450980392156685  L 5.23125 8.217647058823527  C 5.23125 8.759102695912544  5.546049785275224 9.198039215686272  5.934375 9.198039215686272  C 6.322700214724775 9.198039215686272  6.6375 8.759102695912544  6.6375 8.217647058823527  L 6.6375 0.37450980392156685  L 5.23125 0.37450980392156685  Z " stroke-width="0" stroke-dasharray="0" stroke="rgba(255, 255, 255, 0)" fill="none" transform="matrix(1 0 0 1 178 752 )" class="stroke" mask="url(#Clip2848)" />
    <path d="M 6.6375 12.139215686274508  C 6.6375 11.597760049185492  6.322700214724775 11.158823529411762  5.934375 11.158823529411762  C 5.546049785275224 11.158823529411762  5.23125 11.597760049185492  5.23125 12.139215686274508  L 5.23125 15.080392156862743  C 5.23125 15.62184779395176  5.546049785275224 16.060784313725488  5.934375 16.060784313725488  C 6.322700214724775 16.060784313725488  6.6375 15.62184779395176  6.6375 15.080392156862743  L 6.6375 12.139215686274508  Z " stroke-width="0" stroke-dasharray="0" stroke="rgba(255, 255, 255, 0)" fill="none" transform="matrix(1 0 0 1 178 752 )" class="stroke" mask="url(#Clip2848)" />
    <path d="M 1.0125 0.37450980392156685  C 0.6241747852752227 0.37450980392156685  0.309375 0.8134463236953002  0.309375 1.3549019607843165  L 0.309375 12.139215686274508  C 0.309375 12.680671323363525  0.6241747852752227 13.119607843137253  1.0125 13.119607843137253  C 1.4008252147247757 13.119607843137253  1.715625 12.680671323363525  1.715625 12.139215686274508  C 1.715625 12.139215686274508  1.715625 12.139215686274508  2 12.139215686274508  L 2 0.37450980392156685  L 1.0125 0.37450980392156685  Z " stroke-width="0" stroke-dasharray="0" stroke="rgba(255, 255, 255, 0)" fill="none" transform="matrix(1 0 0 1 178 752 )" class="stroke" mask="url(#Clip2848)" />
  </g>
</svg>