<svg t="1781056863608" class="icon" viewBox="0 0 1024 1024" version="1.1" xmlns="http://www.w3.org/2000/svg" p-id="2755" width="20" height="20"><path d="M652.8 187.733333v661.333334c0 42.666667-46.933333 68.266667-81.066667 46.933333l-264.533333-157.866667c-8.533333-4.266667-17.066667-8.533333-25.6-8.533333H136.533333c-29.866667 0-51.2-25.6-51.2-51.2v-298.666667c0-29.866667 21.333333-51.2 51.2-51.2h149.333334c8.533333 0 21.333333-4.266667 29.866666-8.533333l256-170.666667c34.133333-29.866667 81.066667-4.266667 81.066667 38.4zM704 686.933333c-8.533333 0-17.066667-4.266667-17.066667-12.8-4.266667-8.533333 0-21.333333 8.533334-29.866666 4.266667 0 68.266667-38.4 68.266666-128s-68.266667-128-68.266666-128c-12.8-4.266667-17.066667-17.066667-8.533334-25.6 4.266667-8.533333 17.066667-12.8 29.866667-8.533334 4.266667 0 93.866667 46.933333 93.866667 166.4 0 115.2-89.6 162.133333-93.866667 166.4h-12.8z" p-id="2756" fill="#DAD6CD"></path><path d="M810.666667 759.466667c-8.533333 0-12.8-4.266667-17.066667-8.533334-4.266667-8.533333-4.266667-21.333333 8.533333-29.866666 4.266667-4.266667 93.866667-59.733333 93.866667-200.533334 0-145.066667-93.866667-200.533333-93.866667-200.533333-8.533333-4.266667-12.8-17.066667-8.533333-29.866667 4.266667-8.533333 21.333333-12.8 29.866667-8.533333 4.266667 4.266667 115.2 68.266667 115.2 238.933333s-110.933333 234.666667-115.2 238.933334H810.666667z" p-id="2757" fill="#DAD6CD"></path></svg>